<svg xmlns="http://www.w3.org/2000/svg" viewBox="0 0 139.25099 112.14067"><defs><style>.cls-1{fill:#a0c3da;}.cls-2{fill:#007caa;}</style></defs><g id="Layer_2" data-name="Layer 2"><g id="Design"><polygon class="cls-1" points="69.489 112.141 105.055 82.105 69.542 61.731 34.599 82.02 69.489 112.141"/><polygon class="cls-2" points="34.599 82.02 69.489 112.141 105.055 82.105 34.599 82.02"/><polygon class="cls-1" points="27.088 78.461 66.626 56.496 36.388 29.068 0 41.613 27.088 78.461"/><polygon class="cls-2" points="0 41.613 27.088 78.461 66.626 56.496 0 41.613"/><polygon class="cls-1" points="69.489 50.41 105.055 20.375 69.542 0 34.599 20.29 69.489 50.41"/><polygon class="cls-2" points="34.599 20.29 69.489 50.41 105.055 20.375 34.599 20.29"/><polygon class="cls-1" points="112.163 78.461 72.625 56.496 102.863 29.068 139.251 41.613 112.163 78.461"/><polygon class="cls-2" points="139.251 41.613 112.163 78.461 72.625 56.496 139.251 41.613"/></g></g></svg>